<svg xmlns:dc="http://purl.org/dc/elements/1.1/" xmlns:cc="http://creativecommons.org/ns#" xmlns:rdf="http://www.w3.org/1999/02/22-rdf-syntax-ns#" xmlns:svg="http://www.w3.org/2000/svg" xmlns="http://www.w3.org/2000/svg" xmlns:sodipodi="http://sodipodi.sourceforge.net/DTD/sodipodi-0.dtd" xmlns:inkscape="http://www.inkscape.org/namespaces/inkscape" version="1.1" x="0px" y="0px" viewBox="0 0 221 165"><g transform="translate(60,-900.36218)"><path style="text-indent:0;text-transform:none;direction:ltr;block-progression:tb;baseline-shift:baseline;color:#000000;enable-background:accumulate;" d="m 18,956.36216 c -1.0472,10e-5 -1.9999,0.95283 -2,2 l 0,88.00004 c 0,0.9868 0.8983,1.997 2,2 l 64,0 c 1.0472,-10e-5 1.9999,-0.9528 2,-2 l 0,-74.00004 c 0,-0.52204 -0.2225,-1.03918 -0.5938,-1.40625 l -14,-14 C 69.0391,956.58469 68.522,956.36616 68,956.36216 z m 2,4 46,0 0,12 c 0.013,0.92829 0.7847,1.998 2,2 l 12,0 0,70.00004 -60,0 z m 50,2.84375 7.1562,7.15625 -7.1562,0 z m -32,14.15625 c -2.2091,0 -4,1.7909 -4,4 0,2.2092 1.7909,4 4,4 2.2091,0 4,-1.7908 4,-4 0,-2.2091 -1.7909,-4 -4,-4 z m 15,8 c -1.1046,0 -2,0.8954 -2,2 0,1.1046 0.8954,2 2,2 l 17,0 c 1.1046,0 2,-0.8954 2,-2 0,-1.1046 -0.8954,-2 -2,-2 z m -15,1 c -3.6923,0 -8,1.4 -8,7 l 16,0 c 0,-5.6 -4.3077,-7 -8,-7 z m -8,13 c -1.1046,0 -2,0.89544 -2,2.00004 0,1.1046 0.8954,2 2,2 l 40,0 c 1.1046,0 2,-0.8954 2,-2 0,-1.1046 -0.8954,-2.00004 -2,-2.00004 z m 0,14.00004 c -1.1046,0 -2,0.8954 -2,2 0,1.1046 0.8954,2 2,2 l 40,0 c 1.1046,0 2,-0.8954 2,-2 0,-1.1046 -0.8954,-2 -2,-2 z m 0,14 c -1.1046,0 -2,0.8954 -2,2 0,1.1046 0.8954,2 2,2 l 40,0 c 1.1046,0 2,-0.8954 2,-2 0,-1.1046 -0.8954,-2 -2,-2 z" fill="#999999" fill-opacity="1" stroke="none" marker="none" visibility="visible" display="inline" overflow="visible"/></g></svg>
